<svg xmlns="http://www.w3.org/2000/svg" viewBox="0 0 19 10" role="img" aria-labelledby="title">
  <title>Amerikaanse vlag</title>
  <rect width="19" height="10" fill="#FFFFFF"/>
  <g fill="#B22234">
    <rect width="19" height="0.77" y="0"/>
    <rect width="19" height="0.77" y="1.54"/>
    <rect width="19" height="0.77" y="3.08"/>
    <rect width="19" height="0.77" y="4.62"/>
    <rect width="19" height="0.77" y="6.16"/>
    <rect width="19" height="0.77" y="7.7"/>
    <rect width="19" height="0.77" y="9.24"/>
  </g>
  <rect width="7.6" height="5.38" fill="#3C3B6E"/>
  <g fill="#FFFFFF">
    <circle cx="1.1" cy="0.9" r="0.22"/>
    <circle cx="2.35" cy="0.9" r="0.22"/>
    <circle cx="3.6" cy="0.9" r="0.22"/>
    <circle cx="4.85" cy="0.9" r="0.22"/>
    <circle cx="6.1" cy="0.9" r="0.22"/>
    <circle cx="1.72" cy="1.8" r="0.22"/>
    <circle cx="2.97" cy="1.8" r="0.22"/>
    <circle cx="4.22" cy="1.8" r="0.22"/>
    <circle cx="5.47" cy="1.8" r="0.22"/>
    <circle cx="6.72" cy="1.8" r="0.22"/>
    <circle cx="1.1" cy="2.7" r="0.22"/>
    <circle cx="2.35" cy="2.7" r="0.22"/>
    <circle cx="3.6" cy="2.7" r="0.22"/>
    <circle cx="4.85" cy="2.7" r="0.22"/>
    <circle cx="6.1" cy="2.7" r="0.22"/>
    <circle cx="1.72" cy="3.6" r="0.22"/>
    <circle cx="2.97" cy="3.6" r="0.22"/>
    <circle cx="4.22" cy="3.6" r="0.22"/>
    <circle cx="5.47" cy="3.6" r="0.22"/>
    <circle cx="6.72" cy="3.6" r="0.22"/>
    <circle cx="1.1" cy="4.5" r="0.22"/>
    <circle cx="2.35" cy="4.5" r="0.22"/>
    <circle cx="3.6" cy="4.5" r="0.22"/>
    <circle cx="4.85" cy="4.5" r="0.22"/>
    <circle cx="6.1" cy="4.5" r="0.22"/>
  </g>
</svg>
